
<svg width="909px" height="250px" viewBox="0 0 909 250" version="1.1" xmlns="http://www.w3.org/2000/svg" xmlns:xlink="http://www.w3.org/1999/xlink">
    <defs>
        <path d="M0.635192825,35.1573589 C0.635192825,29.3899807 1.64253701,24.2933044 3.65725561,19.867177 C5.6719742,15.4410496 8.32464722,11.7861962 11.6153543,8.90250718 C14.9060613,6.01881812 18.5996566,3.83931838 22.6962511,2.36394258 C26.7928456,0.888566786 30.9229568,0.150889952 35.0867085,0.150889952 C39.2504603,0.150889952 43.3805714,0.888566786 47.4771659,2.36394258 C51.5737604,3.83931838 55.2673557,6.01881812 58.5580628,8.90250718 C61.8487698,11.7861962 64.5014428,15.4410496 66.5161614,19.867177 C68.53088,24.2933044 69.5382242,29.3899807 69.5382242,35.1573589 L69.5382242,42.4000766 L48.9881973,42.4000766 L48.9881973,35.1573589 C48.9881973,30.1947312 47.6114936,26.5398778 44.8580448,24.192689 C42.1045961,21.8455002 38.8475166,20.6719234 35.0867085,20.6719234 C31.3259005,20.6719234 28.0688209,21.8455002 25.3153722,24.192689 C22.5619235,26.5398778 21.1852197,30.1947312 21.1852197,35.1573589 L21.1852197,110.803522 C21.1852197,115.766149 22.5619235,119.421003 25.3153722,121.768191 C28.0688209,124.11538 31.3259005,125.288957 35.0867085,125.288957 C38.8475166,125.288957 42.1045961,124.11538 44.8580448,121.768191 C47.6114936,119.421003 48.9881973,115.766149 48.9881973,110.803522 L48.9881973,83.8445167 L32.6690583,83.8445167 L32.6690583,65.7377225 L69.5382242,65.7377225 L69.5382242,110.803522 C69.5382242,116.705025 68.53088,121.835232 66.5161614,126.194297 C64.5014428,130.553362 61.8487698,134.174684 58.5580628,137.058373 C55.2673557,139.942062 51.5737604,142.121562 47.4771659,143.596938 C43.3805714,145.072314 39.2504603,145.80999 35.0867085,145.80999 C30.9229568,145.80999 26.7928456,145.072314 22.6962511,143.596938 C18.5996566,142.121562 14.9060613,139.942062 11.6153543,137.058373 C8.32464722,134.174684 5.6719742,130.553362 3.65725561,126.194297 C1.64253701,121.835232 0.635192825,116.705025 0.635192825,110.803522 L0.635192825,35.1573589 Z M86.4617758,35.1573589 C86.4617758,29.3899807 87.46912,24.2933044 89.4838386,19.867177 C91.4985572,15.4410496 94.1512302,11.7861962 97.4419372,8.90250718 C100.732644,6.01881812 104.42624,3.83931838 108.522834,2.36394258 C112.619429,0.888566786 116.74954,0.150889952 120.913291,0.150889952 C125.077043,0.150889952 129.207154,0.888566786 133.303749,2.36394258 C137.400343,3.83931838 141.093939,6.01881812 144.384646,8.90250718 C147.675353,11.7861962 150.328026,15.4410496 152.342744,19.867177 C154.357463,24.2933044 155.364807,29.3899807 155.364807,35.1573589 L155.364807,110.803522 C155.364807,116.705025 154.357463,121.835232 152.342744,126.194297 C150.328026,130.553362 147.675353,134.174684 144.384646,137.058373 C141.093939,139.942062 137.400343,142.121562 133.303749,143.596938 C129.207154,145.072314 125.077043,145.80999 120.913291,145.80999 C116.74954,145.80999 112.619429,145.072314 108.522834,143.596938 C104.42624,142.121562 100.732644,139.942062 97.4419372,137.058373 C94.1512302,134.174684 91.4985572,130.553362 89.4838386,126.194297 C87.46912,121.835232 86.4617758,116.705025 86.4617758,110.803522 L86.4617758,35.1573589 Z M107.011803,110.803522 C107.011803,115.766149 108.388506,119.421003 111.141955,121.768191 C113.895404,124.11538 117.152483,125.288957 120.913291,125.288957 C124.6741,125.288957 127.931179,124.11538 130.684628,121.768191 C133.438077,119.421003 134.81478,115.766149 134.81478,110.803522 L134.81478,35.1573589 C134.81478,30.1947312 133.438077,26.5398778 130.684628,24.192689 C127.931179,21.8455002 124.6741,20.6719234 120.913291,20.6719234 C117.152483,20.6719234 113.895404,21.8455002 111.141955,24.192689 C108.388506,26.5398778 107.011803,30.1947312 107.011803,35.1573589 L107.011803,110.803522 Z" id="path-1"></path>
    </defs>
    <g id="Page-1" stroke="none" stroke-width="1" fill="none" fill-rule="evenodd">
        <g id="Group-Copy-3" transform="translate(1.000000, 0.000000)">
            <g id="Rectangle-+-Rectangle-Copy-Mask" transform="translate(59.000000, 42.000000)">
                <mask id="mask-2" fill="white">
                    <use xlink:href="#path-1"></use>
                </mask>
                <use id="Mask" fill="#FFFFFF" xlink:href="#path-1"></use>
            </g>
            <g id="Group-2-Copy" transform="translate(0.000000, 124.000000)" fill="#FFFFFF" stroke="#0160BA" stroke-width="1.43999998">
                <path d="M77.4498696,46.1698691 C97.059547,30.8874531 112.268032,19.1137253 123.075326,10.8486859 C133.88262,2.58364644 138.701523,-0.958871005 137.532037,0.221133552 C140.344199,2.19741114 142.50549,3.90443255 144.015908,5.34219778 C145.526327,6.77996302 148.244786,9.71796822 152.171285,14.1562134 C157.415631,16.4974557 161.153638,18.6090839 163.385305,20.4910978 C165.616973,22.3731118 169.541038,26.7230759 175.1575,33.54099 L181.314764,33.54099 C186.465146,34.3658181 190.323839,35.3567639 192.890844,36.5138272 C195.457848,37.6708906 199.976065,47.0760604 206.445497,64.7293367 L163.385305,44.4108521 L142.308951,35.2212564 L103.387403,42.6429351 L87.9917873,61.3475434 L62.063398,64.7293367 L77.4498696,46.1698691 Z" id="Path-Copy-2"></path>
                <path d="M92.6708405,68.9941432 C112.280518,53.7117272 127.489003,41.9379995 138.296297,33.67296 C149.103591,25.4079206 153.922494,21.8654031 152.753007,23.0454077 C155.56517,25.0216853 157.726461,26.7287067 159.236879,28.1664719 C160.747298,29.6042372 163.465757,32.5422424 167.392256,36.9804875 C172.636602,39.3217299 176.374609,41.433358 178.606276,43.315372 C180.837944,45.1973859 184.762009,49.54735 190.378471,56.3652642 L196.535735,56.3652642 C201.686117,57.1900923 205.54481,58.181038 208.111814,59.3381014 C210.678818,60.4951648 212.686988,62.1486761 214.136324,64.2986354 L223.626793,64.2986354 L238.273584,74.120508 L273.81042,89.7714435 L246.7699,81.7305473 L231.743701,84.1718176 L214.136324,72.9210749 L178.606276,67.2351262 L157.529922,58.0455305 L116.23635,59.3381014 L99.8803384,68.1468165 L91.6525498,72.9210749 L92.6708405,68.9941432 Z" id="Path"></path>
                <path d="M1.01829068,67.8854303 C20.627968,52.6030143 35.8364536,40.8292866 46.6437473,32.5642471 C57.451041,24.2992077 62.2699444,20.7566902 61.1004577,21.9366948 C63.9126203,23.9129724 66.0739108,25.6199938 67.5843293,27.057759 C69.0947478,28.4955242 71.8132068,31.4335294 75.7397062,35.8717746 C80.9840522,38.2130169 84.722059,40.3246451 86.9537265,42.206659 C89.1853941,44.088673 93.1094589,48.4386371 98.725921,55.2565512 L104.883185,55.2565512 C110.033567,56.0813794 113.892261,57.0723251 116.459265,58.2293885 C119.026269,59.3864518 121.034438,61.0399632 122.483774,63.1899225 L131.974243,63.1899225 L146.621034,73.0117951 L182.15787,88.6627306 L155.11735,80.6218343 L140.091151,83.0631046 L122.483774,71.812362 L86.9537265,66.1264133 L65.8773724,56.9368176 L24.5837998,58.2293885 L8.22778866,67.0381036 L0,71.812362 L1.01829068,67.8854303 Z" id="Path-Copy" transform="translate(91.078935, 55.189146) scale(-1, 1) translate(-91.078935, -55.189146) "></path>
            </g>
            <rect id="Rectangle-2" stroke="#FFFFFF" stroke-width="2" x="13" y="1" width="248" height="248"></rect>
            <text id="Guru-Only" font-family="DINCondensed-Bold, DIN Condensed" font-size="169" font-weight="bold" letter-spacing="15" fill="#FFFFFF">
                <tspan x="277.2255" y="179">Guru Onl</tspan>
                <tspan x="848.2865" y="179">y</tspan>
            </text>
        </g>
    </g>
</svg>